<svg width="79" height="53" viewBox="0 0 79 53" fill="none" xmlns="http://www.w3.org/2000/svg">
<path d="M31.7496 19.9758C31.7363 19.5618 31.3898 19.237 30.9758 19.2504L24.2293 19.468C23.8153 19.4814 23.4905 19.8278 23.5039 20.2418C23.5173 20.6558 23.8637 20.9806 24.2777 20.9672L30.2746 20.7738L30.468 26.7707C30.4814 27.1847 30.8278 27.5095 31.2418 27.4961C31.6558 27.4827 31.9806 27.1363 31.9672 26.7223L31.7496 19.9758ZM1.54715 52.513L31.5472 20.513L30.4528 19.487L0.452847 51.487L1.54715 52.513Z" fill="black"/>
<line x1="12.4791" y1="52.4604" x2="41.4791" y2="24.4604" stroke="black" stroke-width="1.5"/>
<line x1="40.513" y1="24.4528" x2="56.513" y2="39.4528" stroke="black" stroke-width="1.5"/>
<line x1="55.4697" y1="39.4697" x2="78.4697" y2="16.4697" stroke="black" stroke-width="1.5"/>
<circle cx="66" cy="8" r="4.25" stroke="black" stroke-width="1.5"/>
<path d="M66 0C66 1.6 66 2 66 2" stroke="black"/>
<path d="M66 14C66 15.6 66 16 66 16" stroke="black"/>
<path d="M61.4142 12C60.2828 13.1314 60 13.4142 60 13.4142" stroke="black"/>
<path d="M72.4142 3C71.2828 4.13137 71 4.41421 71 4.41421" stroke="black"/>
<path d="M70 12C71.1314 13.1314 71.4142 13.4142 71.4142 13.4142" stroke="black"/>
<path d="M60 3C61.1314 4.13137 61.4142 4.41421 61.4142 4.41421" stroke="black"/>
<path d="M58 8C59.6 8 60 8 60 8" stroke="black"/>
<path d="M72 8C73.6 8 74 8 74 8" stroke="black"/>
</svg>
